<svg width="120" height="150" viewBox="0 0 120 150" fill="none" xmlns="http://www.w3.org/2000/svg">
<path d="M57.2321 1.54143L104.989 29.8068C105.113 29.8801 105.189 30.0132 105.189 30.1571V86.7585C105.189 86.9023 105.113 87.0355 104.989 87.1087L57.2321 115.374C57.1042 115.45 56.9453 115.45 56.8175 115.374L9.06049 87.1087C8.93672 87.0355 8.8608 86.9023 8.8608 86.7585V30.1571C8.8608 30.0132 8.93672 29.8801 9.06049 29.8068L56.8175 1.54143C56.9453 1.46577 57.1042 1.46577 57.2321 1.54143Z" stroke="#4F89FD" stroke-width="2.44186"/>
<path d="M19.4173 133.773H24.4312C25.2669 133.773 25.9473 133.934 26.4726 134.257C27.0098 134.579 27.3918 134.985 27.6187 135.474C27.8455 135.952 27.9589 136.447 27.9589 136.961C27.9589 137.498 27.8455 137.963 27.6187 138.357C27.3918 138.751 27.1173 139.056 26.7949 139.271C26.4726 139.486 26.1682 139.623 25.8817 139.683V139.79C26.1921 139.814 26.5502 139.927 26.9561 140.13C27.3739 140.321 27.738 140.638 28.0484 141.079C28.3708 141.509 28.5319 142.058 28.5319 142.727C28.5319 143.324 28.3946 143.897 28.1201 144.446C27.8574 144.983 27.4396 145.431 26.8666 145.789C26.2935 146.135 25.5773 146.308 24.7177 146.308H19.4173V133.773ZM23.9835 139.271C24.664 139.271 25.249 139.098 25.7384 138.751C26.2279 138.393 26.4726 137.844 26.4726 137.104C26.4726 136.4 26.2339 135.886 25.7563 135.564C25.2908 135.242 24.6998 135.08 23.9835 135.08H20.9215V139.271H23.9835ZM24.3238 145.001C25.0997 145.001 25.7444 144.822 26.2577 144.464C26.7711 144.106 27.0277 143.521 27.0277 142.709C27.0277 141.909 26.7711 141.342 26.2577 141.008C25.7444 140.661 25.0997 140.488 24.3238 140.488H20.9215V145.001H24.3238ZM34.5849 146.433C33.6299 146.433 32.8181 146.207 32.1495 145.753C31.493 145.287 30.9975 144.685 30.6633 143.944C30.329 143.192 30.1619 142.386 30.1619 141.527C30.1619 140.667 30.329 139.868 30.6633 139.127C30.9975 138.375 31.493 137.772 32.1495 137.319C32.8181 136.853 33.6299 136.62 34.5849 136.62C35.5399 136.62 36.3457 136.853 37.0023 137.319C37.6709 137.772 38.1663 138.375 38.4886 139.127C38.8229 139.88 38.99 140.679 38.99 141.527C38.99 142.375 38.8229 143.174 38.4886 143.926C38.1544 144.679 37.653 145.287 36.9844 145.753C36.3278 146.207 35.528 146.433 34.5849 146.433ZM34.5849 145.108C35.1699 145.108 35.6772 144.947 36.107 144.625C36.5487 144.303 36.883 143.873 37.1098 143.336C37.3366 142.786 37.45 142.178 37.45 141.509C37.45 140.482 37.1933 139.629 36.68 138.948C36.1667 138.268 35.4683 137.928 34.5849 137.928C33.988 137.928 33.4687 138.089 33.027 138.411C32.5972 138.733 32.2689 139.169 32.0421 139.718C31.8153 140.256 31.7019 140.852 31.7019 141.509C31.7019 142.536 31.9585 143.395 32.4719 144.088C32.9852 144.768 33.6895 145.108 34.5849 145.108ZM45.2346 146.433C44.2796 146.433 43.4678 146.207 42.7993 145.753C42.1427 145.287 41.6473 144.685 41.313 143.944C40.9788 143.192 40.8116 142.386 40.8116 141.527C40.8116 140.667 40.9788 139.868 41.313 139.127C41.6473 138.375 42.1427 137.772 42.7993 137.319C43.4678 136.853 44.2796 136.62 45.2346 136.62C46.1897 136.62 46.9955 136.853 47.6521 137.319C48.3206 137.772 48.816 138.375 49.1384 139.127C49.4726 139.88 49.6398 140.679 49.6398 141.527C49.6398 142.375 49.4726 143.174 49.1384 143.926C48.8041 144.679 48.3027 145.287 47.6342 145.753C46.9776 146.207 46.1777 146.433 45.2346 146.433ZM45.2346 145.108C45.8196 145.108 46.327 144.947 46.7567 144.625C47.1984 144.303 47.5327 143.873 47.7595 143.336C47.9864 142.786 48.0998 142.178 48.0998 141.509C48.0998 140.482 47.8431 139.629 47.3298 138.948C46.8164 138.268 46.1181 137.928 45.2346 137.928C44.6377 137.928 44.1184 138.089 43.6767 138.411C43.247 138.733 42.9187 139.169 42.6919 139.718C42.465 140.256 42.3516 140.852 42.3516 141.509C42.3516 142.536 42.6083 143.395 43.1216 144.088C43.635 144.768 44.3393 145.108 45.2346 145.108ZM54.416 138.107V143.586C54.416 144.028 54.4339 144.356 54.4698 144.571C54.5175 144.774 54.6309 144.935 54.81 145.055C55.001 145.174 55.3054 145.234 55.7232 145.234C56.0098 145.234 56.3201 145.192 56.6544 145.108V146.219C56.5708 146.254 56.3858 146.29 56.0993 146.326C55.8247 146.362 55.5382 146.38 55.2398 146.38C54.5474 146.38 54.028 146.284 53.6818 146.093C53.3476 145.89 53.1267 145.622 53.0193 145.287C52.9238 144.941 52.876 144.488 52.876 143.926V138.107H51.1211V136.871H52.876V133.773H54.416V136.871H56.6544V138.107H54.416ZM62.1443 146.433C61.3803 146.433 60.7177 146.284 60.1566 145.986C59.5955 145.675 59.1658 145.281 58.8673 144.804C58.5808 144.326 58.4375 143.825 58.4375 143.3V143.21H59.9775V143.282C59.9775 143.58 60.0611 143.879 60.2282 144.177C60.3954 144.464 60.6461 144.702 60.9803 144.893C61.3146 145.073 61.7205 145.162 62.198 145.162C62.771 145.162 63.2426 145.025 63.6127 144.75C63.9947 144.464 64.1857 144.076 64.1857 143.586C64.1857 143.18 64.0365 142.858 63.738 142.619C63.4515 142.381 63.0874 142.225 62.6457 142.154L61.4101 141.975C60.6341 141.855 59.9835 141.593 59.4582 141.187C58.933 140.769 58.6703 140.166 58.6703 139.378C58.6703 138.507 58.9807 137.832 59.6015 137.355C60.2342 136.865 61.04 136.62 62.0189 136.62C62.7472 136.62 63.3679 136.758 63.8813 137.032C64.4065 137.295 64.8065 137.647 65.081 138.089C65.3556 138.519 65.4929 138.99 65.4929 139.503V139.575H63.9529V139.539C63.9529 139.301 63.8872 139.05 63.7559 138.787C63.6365 138.525 63.4276 138.298 63.1292 138.107C62.8307 137.916 62.4487 137.82 61.9831 137.82C61.4101 137.82 60.9505 137.963 60.6043 138.25C60.2581 138.525 60.085 138.889 60.085 139.342C60.085 139.712 60.2223 140.017 60.4968 140.256C60.7714 140.494 61.1176 140.65 61.5355 140.721L62.8785 140.936C63.6664 141.067 64.3289 141.342 64.8662 141.76C65.4034 142.166 65.672 142.768 65.672 143.568C65.672 144.141 65.5168 144.643 65.2064 145.073C64.9079 145.502 64.4901 145.837 63.9529 146.075C63.4157 146.314 62.8128 146.433 62.1443 146.433ZM70.3295 138.107V143.586C70.3295 144.028 70.3474 144.356 70.3832 144.571C70.4309 144.774 70.5443 144.935 70.7234 145.055C70.9144 145.174 71.2188 145.234 71.6367 145.234C71.9232 145.234 72.2336 145.192 72.5678 145.108V146.219C72.4843 146.254 72.2992 146.29 72.0127 146.326C71.7381 146.362 71.4516 146.38 71.1532 146.38C70.4608 146.38 69.9415 146.284 69.5953 146.093C69.261 145.89 69.0402 145.622 68.9327 145.287C68.8372 144.941 68.7895 144.488 68.7895 143.926V138.107H67.0346V136.871H68.7895V133.773H70.3295V136.871H72.5678V138.107H70.3295ZM74.7628 136.871H76.3028V138.375H76.4103C76.5655 137.957 76.84 137.605 77.234 137.319C77.6399 137.02 78.1473 136.871 78.7561 136.871C78.9471 136.871 79.0963 136.883 79.2038 136.907C79.3231 136.919 79.4545 136.949 79.5977 136.996L79.544 138.501C79.353 138.441 79.1859 138.399 79.0426 138.375C78.9113 138.351 78.7382 138.34 78.5233 138.34C77.043 138.34 76.3028 139.217 76.3028 140.972V146.308H74.7628V136.871ZM84.481 146.433C83.6453 146.433 82.9291 146.219 82.3322 145.789C81.7472 145.359 81.2995 144.774 80.9891 144.034C80.6788 143.294 80.5236 142.458 80.5236 141.527C80.5236 140.596 80.6788 139.76 80.9891 139.02C81.3115 138.268 81.7711 137.683 82.368 137.265C82.9768 136.835 83.6991 136.62 84.5347 136.62C85.3704 136.62 86.0449 136.817 86.5582 137.211C87.0715 137.605 87.4595 138.077 87.7222 138.626H87.8475V136.871H89.4054V146.308H87.8475V144.374H87.7222C87.4357 144.935 87.0298 145.419 86.5045 145.825C85.9792 146.231 85.3047 146.433 84.481 146.433ZM84.9645 145.108C85.8837 145.108 86.5881 144.768 87.0775 144.088C87.567 143.395 87.8117 142.542 87.8117 141.527C87.8117 140.512 87.567 139.665 87.0775 138.984C86.5881 138.292 85.8837 137.946 84.9645 137.946C84.0214 137.946 83.3051 138.286 82.8157 138.966C82.3381 139.647 82.0994 140.494 82.0994 141.509C82.0994 142.536 82.3381 143.395 82.8157 144.088C83.3051 144.768 84.0214 145.108 84.9645 145.108ZM97.0359 146.433C96.2122 146.433 95.5377 146.231 95.0124 145.825C94.4871 145.419 94.0812 144.935 93.7947 144.374H93.6694V149.943H92.1115V136.871H93.6694V138.626H93.7947C94.0574 138.077 94.4454 137.605 94.9587 137.211C95.472 136.817 96.1465 136.62 96.9822 136.62C97.8298 136.62 98.552 136.835 99.1489 137.265C99.7578 137.683 100.217 138.268 100.528 139.02C100.838 139.76 100.993 140.596 100.993 141.527C100.993 142.458 100.838 143.294 100.528 144.034C100.217 144.774 99.7637 145.359 99.1668 145.789C98.5699 146.219 97.8596 146.433 97.0359 146.433ZM96.5524 145.108C97.4836 145.108 98.1879 144.768 98.6654 144.088C99.1549 143.407 99.3996 142.554 99.3996 141.527C99.3996 140.512 99.1609 139.665 98.6833 138.984C98.2058 138.304 97.4955 137.963 96.5524 137.963C95.6212 137.963 94.9109 138.304 94.4215 138.984C93.944 139.665 93.7052 140.512 93.7052 141.527C93.7052 142.542 93.9499 143.395 94.4394 144.088C94.9288 144.768 95.6332 145.108 96.5524 145.108Z" fill="black"/>
<g clip-path="url(#clip0_46_267)">
<path d="M27.7686 77.1726C27.7686 81.5169 31.2038 85.038 35.4411 85.038H79.5999C83.838 85.038 87.2727 81.5165 87.2727 77.1726V31.9042C87.2727 27.5596 83.8375 24.0386 79.6001 24.0386H35.4413C31.2033 24.0386 27.7686 27.5601 27.7686 31.9039V77.1724V77.1726Z" fill="#563D7C"/>
<path d="M52.4439 51.0209V42.3826H59.8612C60.5679 42.3826 61.2489 42.4429 61.9048 42.5637C62.5608 42.6843 63.1412 42.8997 63.6458 43.2101C64.1502 43.5206 64.5539 43.9517 64.8568 44.5033C65.1594 45.0551 65.311 45.7621 65.311 46.624C65.311 48.1759 64.8568 49.2967 63.9484 49.9863C63.0403 50.6761 61.8797 51.0209 60.4667 51.0209H52.4439V51.0209ZM44.5217 36.0718V73.005H61.9806C63.5954 73.005 65.168 72.7982 66.6986 72.3843C68.2293 71.9704 69.5916 71.3325 70.7858 70.4705C71.9799 69.6084 72.9303 68.4961 73.6367 67.1341C74.3433 65.7718 74.6964 64.1596 74.6964 62.2975C74.6964 59.9869 74.1497 58.0127 73.0565 56.3748C71.9631 54.7366 70.3063 53.59 68.0861 52.9348C69.7008 52.1418 70.9204 51.1243 71.7446 49.8829C72.5686 48.6415 72.9807 47.0898 72.9807 45.2274C72.9807 43.5032 72.7032 42.055 72.1482 40.8824C71.5931 39.7101 70.8109 38.7703 69.8017 38.0633C68.7927 37.3563 67.5817 36.8476 66.1687 36.5374C64.7559 36.2269 63.1916 36.0718 61.476 36.0718H44.5217V36.0718ZM52.4439 66.6942V56.5557H61.0723C62.7879 56.5557 64.1672 56.9607 65.2101 57.7714C66.2528 58.5818 66.7744 59.9352 66.7744 61.8319C66.7744 62.7976 66.6145 63.5906 66.2949 64.2113C65.9753 64.8321 65.5465 65.3236 65.0081 65.6856C64.47 66.0478 63.8476 66.3063 63.1412 66.4616C62.4346 66.6165 61.6947 66.6942 60.9209 66.6942H52.4439V66.6942Z" fill="white"/>
</g>
<defs>
<clipPath id="clip0_46_267">
<rect width="59.5041" height="60.9994" fill="white" transform="translate(27.7686 24.0386)"/>
</clipPath>
</defs>
</svg>
