<svg width="120" height="150" viewBox="0 0 120 150" fill="none" xmlns="http://www.w3.org/2000/svg">
<path d="M60.2527 1.86723L107.68 30.4881C107.827 30.5767 107.917 30.7356 107.917 30.9071V88.3012C107.917 88.4727 107.827 88.6316 107.68 88.7202L60.2527 117.341C60.0972 117.435 59.9026 117.435 59.7471 117.341L12.3195 88.7202C12.1728 88.6316 12.083 88.4727 12.083 88.3012V30.9071C12.083 30.7356 12.1727 30.5767 12.3195 30.4881L59.7471 1.86723C59.9026 1.77339 60.0972 1.77339 60.2527 1.86723Z" stroke="#4F89FD" stroke-width="2.93611"/>
<path d="M41.0103 145.817C39.6035 145.817 38.3906 145.487 37.3715 144.827C36.3523 144.152 35.57 143.226 35.0245 142.049C34.4934 140.872 34.2279 139.537 34.2279 138.044C34.2279 136.552 34.4934 135.217 35.0245 134.04C35.57 132.862 36.3523 131.944 37.3715 131.283C38.3906 130.609 39.6035 130.272 41.0103 130.272C42.7041 130.272 44.1036 130.752 45.2089 131.714C46.3142 132.662 47.0534 133.946 47.4266 135.568H45.5965C45.295 134.463 44.7424 133.587 43.9385 132.941C43.1347 132.281 42.1658 131.951 41.0318 131.951C39.4672 131.951 38.2686 132.504 37.436 133.609C36.6035 134.7 36.1872 136.171 36.1872 138.023C36.1872 139.889 36.6035 141.375 37.436 142.48C38.2686 143.571 39.4672 144.116 41.0318 144.116C42.1084 144.116 43.0342 143.829 43.8094 143.255C44.5845 142.666 45.1371 141.884 45.4673 140.908H47.2975C46.8955 142.401 46.1491 143.592 45.0582 144.482C43.9816 145.372 42.6323 145.817 41.0103 145.817ZM54.9608 145.839C53.7981 145.839 52.8005 145.602 51.9679 145.128C51.1497 144.64 50.5325 144.016 50.1162 143.255C49.6999 142.494 49.4918 141.698 49.4918 140.865V140.757H51.5373V140.865C51.5373 141.367 51.6521 141.87 51.8818 142.372C52.1258 142.875 52.5062 143.298 53.023 143.643C53.5397 143.973 54.2 144.138 55.0039 144.138C55.9512 144.138 56.7336 143.894 57.3508 143.406C57.968 142.918 58.2766 142.257 58.2766 141.425C58.2766 140.736 58.047 140.19 57.5876 139.788C57.1427 139.372 56.5685 139.092 55.8651 138.949L53.6689 138.54C51.1426 137.98 49.8794 136.652 49.8794 134.556C49.8794 133.695 50.0875 132.941 50.5038 132.295C50.9201 131.65 51.4942 131.154 52.2263 130.81C52.9727 130.451 53.834 130.272 54.8101 130.272C55.9154 130.272 56.8627 130.494 57.6522 130.939C58.4417 131.384 59.0374 131.965 59.4393 132.683C59.8413 133.386 60.0422 134.118 60.0422 134.879V134.965H57.9967V134.901C57.9967 134.47 57.8891 134.032 57.6738 133.587C57.4728 133.128 57.1283 132.733 56.6403 132.403C56.1666 132.073 55.535 131.908 54.7455 131.908C53.8412 131.908 53.1163 132.159 52.5708 132.662C52.0397 133.164 51.7741 133.788 51.7741 134.535C51.7741 135.166 51.9823 135.683 52.3986 136.085C52.8148 136.487 53.3818 136.76 54.0995 136.903L56.0804 137.291C58.8508 137.851 60.236 139.207 60.236 141.36C60.236 142.236 60.0135 143.011 59.5685 143.686C59.1379 144.36 58.5207 144.891 57.7168 145.279C56.913 145.652 55.9943 145.839 54.9608 145.839ZM67.9974 145.839C66.8347 145.839 65.8371 145.602 65.0045 145.128C64.1864 144.64 63.5691 144.016 63.1528 143.255C62.7366 142.494 62.5284 141.698 62.5284 140.865V140.757H64.5739V140.865C64.5739 141.367 64.6888 141.87 64.9184 142.372C65.1624 142.875 65.5428 143.298 66.0596 143.643C66.5763 143.973 67.2366 144.138 68.0405 144.138C68.9879 144.138 69.7702 143.894 70.3874 143.406C71.0046 142.918 71.3133 142.257 71.3133 141.425C71.3133 140.736 71.0836 140.19 70.6243 139.788C70.1793 139.372 69.6051 139.092 68.9017 138.949L66.7055 138.54C64.1792 137.98 62.916 136.652 62.916 134.556C62.916 133.695 63.1241 132.941 63.5404 132.295C63.9567 131.65 64.5309 131.154 65.2629 130.81C66.0093 130.451 66.8706 130.272 67.8467 130.272C68.952 130.272 69.8994 130.494 70.6888 130.939C71.4783 131.384 72.074 131.965 72.476 132.683C72.8779 133.386 73.0788 134.118 73.0788 134.879V134.965H71.0334V134.901C71.0334 134.47 70.9257 134.032 70.7104 133.587C70.5094 133.128 70.1649 132.733 69.6769 132.403C69.2032 132.073 68.5716 131.908 67.7821 131.908C66.8778 131.908 66.1529 132.159 65.6074 132.662C65.0763 133.164 64.8108 133.788 64.8108 134.535C64.8108 135.166 65.0189 135.683 65.4352 136.085C65.8515 136.487 66.4184 136.76 67.1362 136.903L69.1171 137.291C71.8874 137.851 73.2726 139.207 73.2726 141.36C73.2726 142.236 73.0501 143.011 72.6051 143.686C72.1745 144.36 71.5573 144.891 70.7534 145.279C69.9496 145.652 69.0309 145.839 67.9974 145.839ZM80.8223 145.839C79.272 145.839 78.0662 145.466 77.205 144.719C76.3581 143.973 75.8341 143.054 75.6332 141.963H77.5064C77.7074 142.623 78.0806 143.155 78.6261 143.556C79.1859 143.958 79.9108 144.159 80.8007 144.159C81.8629 144.159 82.6596 143.894 83.1907 143.363C83.7362 142.832 84.0089 142.164 84.0089 141.36C84.0089 140.47 83.7003 139.788 83.0831 139.315C82.4658 138.841 81.7051 138.604 80.8007 138.604H79.3797V137.119H80.7146C81.5759 137.119 82.3079 136.918 82.9108 136.516C83.5137 136.114 83.8151 135.461 83.8151 134.556C83.8151 133.724 83.5352 133.063 82.9754 132.575C82.4156 132.087 81.6763 131.843 80.7577 131.843C79.8964 131.843 79.2146 132.044 78.7122 132.446C78.2241 132.848 77.9083 133.372 77.7648 134.018H75.9562C76.1284 132.984 76.5949 132.102 77.3557 131.37C78.1165 130.623 79.2576 130.25 80.7792 130.25C81.8701 130.25 82.7816 130.451 83.5137 130.853C84.2458 131.255 84.784 131.779 85.1286 132.425C85.4731 133.056 85.6453 133.738 85.6453 134.47C85.6453 135.245 85.4731 135.884 85.1286 136.386C84.784 136.874 84.4037 137.241 83.9874 137.485C83.5855 137.714 83.3127 137.829 83.1692 137.829V137.958C83.3558 137.973 83.6572 138.087 84.0735 138.303C84.5041 138.518 84.8989 138.891 85.2577 139.422C85.631 139.953 85.8176 140.65 85.8176 141.511C85.8176 142.3 85.6381 143.025 85.2793 143.686C84.9204 144.332 84.3606 144.855 83.5998 145.257C82.8534 145.645 81.9275 145.839 80.8223 145.839Z" fill="black"/>
<path d="M79.5689 86.6808L59.5038 92.3279L39.4384 86.6808L34.8081 34.249H84.1997L79.5689 86.6808Z" fill="#2062AF"/>
<path d="M59.5044 38.4971V87.825L59.5498 87.8379L75.7876 83.2677L79.5356 38.4971H59.5044V38.4971Z" fill="#3C9CD7"/>
<path d="M48.1167 26.5463V23.4256H52.4728V20.0107H44.8496V29.6624H52.4728V26.5463H48.1167ZM60.3089 23.4256H63.3544V20.0107H55.7305V23.4256C56.7505 24.4917 57.2824 25.0019 58.7576 26.5438C57.8952 26.5438 55.7305 26.5471 55.7305 26.5469V29.6624H63.3544V26.5463L60.3089 23.4256ZM71.1144 23.4256H74.1597V20.0107H66.5356V23.4256C67.5555 24.4917 68.0878 25.0019 69.5629 26.5438C68.7009 26.5438 66.5356 26.5471 66.5356 26.5469V29.6624H74.1599V26.5463L71.1144 23.4256V23.4256Z" fill="black"/>
<path d="M59.4863 51.6069L45.125 57.8585L45.6013 64.0481L59.4863 57.8428L74.2563 51.2423L74.8687 44.9106L59.4863 51.6069Z" fill="white"/>
<path d="M45.1245 57.8581L45.6008 64.0476L59.4858 57.8424V51.6064L45.1245 57.8581V57.8581Z" fill="url(#paint0_linear_46_273)"/>
<path d="M74.8687 44.9106L59.4863 51.6068V57.8427L74.2564 51.2422L74.8687 44.9106Z" fill="url(#paint1_linear_46_273)"/>
<path d="M45.147 57.8579L45.6234 64.0475L66.9281 64.1185L66.4515 72.3711L59.4411 74.434L52.7019 72.6555L52.2936 67.5331H46.0317L46.8486 77.422L59.5091 81.3348L72.101 77.493L73.7347 57.8579H45.147V57.8579Z" fill="url(#paint2_linear_46_273)"/>
<path opacity="0.05" d="M59.4863 57.8579H45.125L45.6013 64.0475L59.4863 64.0938V57.8579ZM59.4863 74.4143L59.4182 74.4342L52.68 72.6557L52.2716 67.5333H46.0099L46.8266 77.4222L59.4863 81.335V74.4143Z" fill="black"/>
<path d="M43.832 44.9106H74.8691L74.2567 51.2423H44.5807L43.832 44.9106V44.9106Z" fill="url(#paint3_linear_46_273)"/>
<path opacity="0.05" d="M59.4867 44.9106H43.832L44.5807 51.2423H59.4867V44.9106V44.9106Z" fill="black"/>
<defs>
<linearGradient id="paint0_linear_46_273" x1="52.3051" y1="64.0478" x2="52.3051" y2="51.6066" gradientUnits="userSpaceOnUse">
<stop offset="0.387" stop-color="#D1D3D4" stop-opacity="0"/>
<stop offset="1" stop-color="#D1D3D4"/>
</linearGradient>
<linearGradient id="paint1_linear_46_273" x1="67.1774" y1="57.8429" x2="67.1774" y2="44.9108" gradientUnits="userSpaceOnUse">
<stop offset="0.387" stop-color="#D1D3D4" stop-opacity="0"/>
<stop offset="1" stop-color="#D1D3D4"/>
</linearGradient>
<linearGradient id="paint2_linear_46_273" x1="45.147" y1="69.5965" x2="73.7346" y2="69.5965" gradientUnits="userSpaceOnUse">
<stop stop-color="#E8E7E5"/>
<stop offset="1" stop-color="white"/>
</linearGradient>
<linearGradient id="paint3_linear_46_273" x1="43.832" y1="48.0765" x2="74.8689" y2="48.0765" gradientUnits="userSpaceOnUse">
<stop stop-color="#E8E7E5"/>
<stop offset="1" stop-color="white"/>
</linearGradient>
</defs>
</svg>
