<svg width="186" height="81" viewBox="0 0 186 81" fill="none" xmlns="http://www.w3.org/2000/svg">
<g filter="url(#filter0_ddd_46_238)">
<rect x="5" y="4" width="176" height="71" rx="4" fill="#E84949"/>
<path d="M50.5829 31.5V56H47.5379V44.905H35.0779V56H32.0679V31.5H35.0779V42.455H47.5379V31.5H50.5829ZM56.0678 37.555H59.0778V56H56.0678V37.555ZM57.5378 34.125C56.9778 34.125 56.5111 33.9383 56.1378 33.565C55.7644 33.1683 55.5778 32.7017 55.5778 32.165C55.5778 31.6283 55.7644 31.1733 56.1378 30.8C56.5111 30.4033 56.9778 30.205 57.5378 30.205C58.0978 30.205 58.5644 30.4033 58.9378 30.8C59.3344 31.1733 59.5328 31.6283 59.5328 32.165C59.5328 32.7017 59.3344 33.1683 58.9378 33.565C58.5644 33.9383 58.0978 34.125 57.5378 34.125ZM64.4328 37.555H67.4428V40.495H67.6528C67.9561 39.6783 68.4928 38.99 69.2628 38.43C70.0561 37.8467 71.0478 37.555 72.2378 37.555C72.6111 37.555 72.9028 37.5783 73.1128 37.625C73.3461 37.6483 73.6028 37.7067 73.8828 37.8L73.7778 40.74C73.4044 40.6233 73.0778 40.5417 72.7978 40.495C72.5411 40.4483 72.2028 40.425 71.7828 40.425C68.8894 40.425 67.4428 42.14 67.4428 45.57V56H64.4328V37.555ZM84.4424 56.245C82.5524 56.245 80.954 55.79 79.6474 54.88C78.364 53.97 77.4074 52.78 76.7774 51.31C76.1474 49.84 75.8324 48.2883 75.8324 46.655C75.8324 44.9983 76.1474 43.4467 76.7774 42C77.4074 40.53 78.3757 39.34 79.6824 38.43C80.989 37.52 82.5874 37.065 84.4774 37.065C86.9507 37.065 88.9224 37.8933 90.3924 39.55C91.8857 41.2067 92.6324 43.5867 92.6324 46.69V47.53H78.8424V47.775C78.8424 48.8017 79.0757 49.77 79.5424 50.68C80.009 51.59 80.6624 52.325 81.5024 52.885C82.3424 53.445 83.3107 53.725 84.4074 53.725C85.5974 53.725 86.624 53.4217 87.4874 52.815C88.3507 52.2083 88.9924 51.3917 89.4124 50.365H92.3874C91.8974 52.045 90.9757 53.445 89.6224 54.565C88.2924 55.685 86.5657 56.245 84.4424 56.245ZM89.6574 45.395C89.564 43.295 89.0507 41.7783 88.1174 40.845C87.184 39.9117 85.959 39.445 84.4424 39.445C82.7857 39.445 81.4674 39.9933 80.4874 41.09C79.5074 42.1867 78.9824 43.6217 78.9124 45.395H89.6574ZM105.144 37.555H108.119V40.95H108.399C108.446 40.7167 108.679 40.2967 109.099 39.69C109.519 39.06 110.161 38.465 111.024 37.905C111.887 37.345 112.961 37.065 114.244 37.065C115.597 37.065 116.717 37.38 117.604 38.01C118.514 38.64 119.191 39.3167 119.634 40.04C120.077 40.7633 120.299 41.2183 120.299 41.405H120.579C120.906 40.5883 121.547 39.6667 122.504 38.64C123.484 37.59 124.977 37.065 126.984 37.065C128.477 37.065 129.726 37.45 130.729 38.22C131.732 38.9667 132.467 39.935 132.934 41.125C133.424 42.315 133.669 43.5867 133.669 44.94V56H130.694V45.22C130.694 43.4467 130.227 42.105 129.294 41.195C128.384 40.285 127.252 39.83 125.899 39.83C124.499 39.83 123.309 40.3083 122.329 41.265C121.372 42.1983 120.894 43.5167 120.894 45.22V56H117.919V45.22C117.919 43.4467 117.452 42.105 116.519 41.195C115.609 40.285 114.477 39.83 113.124 39.83C111.724 39.83 110.534 40.3083 109.554 41.265C108.597 42.1983 108.119 43.5167 108.119 45.22V56H105.144V37.555ZM146.547 56.245C144.657 56.245 143.059 55.79 141.752 54.88C140.469 53.97 139.512 52.78 138.882 51.31C138.252 49.84 137.937 48.2883 137.937 46.655C137.937 44.9983 138.252 43.4467 138.882 42C139.512 40.53 140.48 39.34 141.787 38.43C143.094 37.52 144.692 37.065 146.582 37.065C149.055 37.065 151.027 37.8933 152.497 39.55C153.99 41.2067 154.737 43.5867 154.737 46.69V47.53H140.947V47.775C140.947 48.8017 141.18 49.77 141.647 50.68C142.114 51.59 142.767 52.325 143.607 52.885C144.447 53.445 145.415 53.725 146.512 53.725C147.702 53.725 148.729 53.4217 149.592 52.815C150.455 52.2083 151.097 51.3917 151.517 50.365H154.492C154.002 52.045 153.08 53.445 151.727 54.565C150.397 55.685 148.67 56.245 146.547 56.245ZM151.762 45.395C151.669 43.295 151.155 41.7783 150.222 40.845C149.289 39.9117 148.064 39.445 146.547 39.445C144.89 39.445 143.572 39.9933 142.592 41.09C141.612 42.1867 141.087 43.6217 141.017 45.395H151.762Z" fill="white"/>
</g>
<defs>
<filter id="filter0_ddd_46_238" x="0" y="0" width="186" height="81" filterUnits="userSpaceOnUse" color-interpolation-filters="sRGB">
<feFlood flood-opacity="0" result="BackgroundImageFix"/>
<feColorMatrix in="SourceAlpha" type="matrix" values="0 0 0 0 0 0 0 0 0 0 0 0 0 0 0 0 0 0 127 0" result="hardAlpha"/>
<feOffset dy="1"/>
<feGaussianBlur stdDeviation="2.5"/>
<feColorMatrix type="matrix" values="0 0 0 0 0 0 0 0 0 0 0 0 0 0 0 0 0 0 0.2 0"/>
<feBlend mode="normal" in2="BackgroundImageFix" result="effect1_dropShadow_46_238"/>
<feColorMatrix in="SourceAlpha" type="matrix" values="0 0 0 0 0 0 0 0 0 0 0 0 0 0 0 0 0 0 127 0" result="hardAlpha"/>
<feOffset dy="3"/>
<feGaussianBlur stdDeviation="0.5"/>
<feColorMatrix type="matrix" values="0 0 0 0 0 0 0 0 0 0 0 0 0 0 0 0 0 0 0.12 0"/>
<feBlend mode="normal" in2="effect1_dropShadow_46_238" result="effect2_dropShadow_46_238"/>
<feColorMatrix in="SourceAlpha" type="matrix" values="0 0 0 0 0 0 0 0 0 0 0 0 0 0 0 0 0 0 127 0" result="hardAlpha"/>
<feOffset dy="2"/>
<feGaussianBlur stdDeviation="1"/>
<feColorMatrix type="matrix" values="0 0 0 0 0 0 0 0 0 0 0 0 0 0 0 0 0 0 0.14 0"/>
<feBlend mode="normal" in2="effect2_dropShadow_46_238" result="effect3_dropShadow_46_238"/>
<feBlend mode="normal" in="SourceGraphic" in2="effect3_dropShadow_46_238" result="shape"/>
</filter>
</defs>
</svg>
