<svg width="120" height="150" viewBox="0 0 120 150" fill="none" xmlns="http://www.w3.org/2000/svg">
<path d="M60.2532 1.90672L110.176 30.4741C110.334 30.5649 110.432 30.7337 110.432 30.9165V88.0199C110.432 88.2027 110.334 88.3715 110.176 88.4623L60.2532 117.03C60.0963 117.119 59.9037 117.119 59.7468 117.03L9.82422 88.4623C9.66556 88.3715 9.56766 88.2027 9.56766 88.0199V30.9165C9.56766 30.7337 9.66556 30.5649 9.82423 30.4741L59.7468 1.90672C59.9037 1.81697 60.0963 1.81697 60.2532 1.90672Z" stroke="#4F89FD" stroke-width="3.05837"/>
<g clip-path="url(#clip0_46_258)">
<path d="M84.7027 38.4048L80.2018 88.3805L59.9696 93.9397L39.7932 88.3882L35.2969 38.4048H84.7027Z" fill="#E44D26"/>
<path d="M59.9995 89.6905L76.3481 85.1983L80.1943 42.4917H59.9995V89.6905Z" fill="#F16529"/>
<path d="M51.2502 54.7523H60V48.6221H44.4907L44.6387 50.2667L46.159 67.1601H60V61.0298H51.8155L51.2502 54.7523V54.7523ZM52.6442 70.2253H46.4353L47.3018 79.8507L59.9715 83.3365L60 83.3289V76.9508L59.9729 76.9579L53.0846 75.1144L52.6442 70.2253V70.2253Z" fill="#EBEBEB"/>
<path d="M39.8936 24.8213H43.0367V27.8992H45.9121V24.8213H49.0555V34.1419H45.9123V31.0208H43.0369V34.1419H39.8937V24.8213H39.8936ZM53.1887 27.9122H50.422V24.8213H59.1009V27.9122H56.3324V34.1419H53.1892V27.9122H53.189H53.1887ZM60.4782 24.8213H63.7556L65.7716 28.0963L67.7858 24.8213H71.0645V34.1419H67.9341V29.5221L65.7716 32.8361H65.7174L63.5536 29.5221V34.1419H60.4782V24.8213ZM72.6287 24.8213H75.7729V31.0611H80.1931V34.1419H72.6285V24.8213H72.6287Z" fill="black"/>
<path d="M59.9787 67.1601H67.595L66.8769 75.1106L59.9785 76.956V83.3337L72.6583 79.8507L72.7513 78.815L74.205 62.676L74.3558 61.0298H59.9787V67.1601ZM59.9787 54.7374V54.7523H74.9186L75.0426 53.3745L75.3245 50.2667L75.4723 48.6221H59.9787V54.7375V54.7374Z" fill="white"/>
</g>
<path d="M34.5573 129.865V145.565H32.606V138.455H24.6216V145.565H22.6928V129.865H24.6216V136.885H32.606V129.865H34.5573ZM48.4113 131.615H43.7911V145.565H41.8623V131.615H37.2421V129.865H48.4113V131.615ZM50.9688 129.865H53.8172L58.4822 141.887H58.5495L63.2145 129.865H66.0629V145.565H64.1565V132.848H64.0668L59.1999 145.565H57.8094L52.9649 132.848H52.8752V145.565H50.9688V129.865ZM78.8486 143.816V145.565H69.5859V129.865H71.5371L71.5147 143.816H78.8486ZM91.9414 145.655C90.9396 145.655 90.0574 145.46 89.2949 145.072C88.5323 144.683 87.9267 144.182 87.4782 143.569C87.0296 142.941 86.7455 142.261 86.6259 141.528H88.5547C88.794 142.335 89.2201 142.933 89.8331 143.322C90.4462 143.711 91.1414 143.905 91.9189 143.905C93.0104 143.905 93.8552 143.561 94.4533 142.874C95.0514 142.171 95.3504 141.251 95.3504 140.115C95.3504 138.904 95.0215 137.992 94.3636 137.379C93.7057 136.766 92.8834 136.459 91.8965 136.459C90.8947 136.459 90.177 136.683 89.7434 137.132C89.3248 137.581 89.0332 138.014 88.8687 138.433L86.8502 138.298L87.2763 129.865H96.2027V131.66H88.8912L88.622 136.706H88.7117C89.4743 135.555 90.6704 134.979 92.3002 134.979C93.2721 134.979 94.1318 135.188 94.8794 135.607C95.642 136.011 96.2326 136.601 96.6513 137.379C97.0699 138.141 97.2793 139.061 97.2793 140.137C97.2793 141.184 97.0624 142.126 96.6288 142.963C96.2102 143.801 95.5971 144.458 94.7897 144.937C93.9823 145.415 93.0329 145.655 91.9414 145.655Z" fill="black"/>
<defs>
<clipPath id="clip0_46_258">
<rect width="69.913" height="69.2934" fill="white" transform="translate(25.0435 24.8213)"/>
</clipPath>
</defs>
</svg>
